<svg width="5800" height="5800" viewBox="0 0 5800 5800" fill="none" xmlns="http://www.w3.org/2000/svg">
<rect width="5800" height="5800" rx="1725" fill="white"/>
<path d="M1182.43 1067.67C1297.02 1096.31 1406.23 1117.8 1510.07 1132.12C1613.91 1146.44 1705.22 1157.19 1784 1164.35C1877.1 1175.09 1963.03 1178.67 2041.81 1175.09C2142.07 1175.09 2267.39 1166.14 2417.79 1148.23C2571.76 1130.33 2729.31 1114.22 2890.44 1099.89C3051.57 1081.99 3205.55 1071.25 3352.36 1067.67C3502.75 1060.51 3624.49 1069.46 3717.59 1094.52C3810.69 1116.01 3905.58 1150.02 4002.26 1196.57C4102.52 1239.54 4193.83 1295.04 4276.18 1363.08C4358.54 1427.53 4426.57 1504.52 4480.29 1594.04C4534 1679.97 4564.43 1778.44 4571.59 1889.45C4568.01 2029.09 4535.79 2159.79 4474.91 2281.54C4424.78 2385.38 4340.64 2492.8 4222.47 2603.8C4104.31 2711.22 3934.22 2793.58 3712.22 2850.87C3823.22 2865.19 3918.11 2890.26 3996.89 2926.07C4079.24 2958.29 4149.07 2997.68 4206.36 3044.23C4267.23 3087.2 4315.57 3135.54 4351.38 3189.25C4390.77 3242.96 4421.2 3296.67 4442.69 3350.38C4496.4 3475.71 4521.46 3615.36 4517.88 3769.33C4496.4 3969.85 4455.22 4129.19 4394.35 4247.36C4337.06 4365.52 4270.81 4456.83 4195.62 4521.28C4120.42 4585.73 4043.44 4630.49 3964.66 4655.56C3885.88 4680.62 3814.27 4700.32 3749.82 4714.64C3685.36 4728.96 3606.59 4736.12 3513.49 4736.12C3420.39 4736.12 3320.13 4734.33 3212.71 4730.75C3108.87 4723.59 3001.44 4718.22 2890.44 4714.64C2779.44 4707.48 2673.81 4707.48 2573.55 4714.64C2491.19 4721.8 2390.93 4728.96 2272.77 4736.12C2172.51 4743.29 2047.18 4752.24 1896.79 4762.98C1746.4 4770.14 1570.94 4779.09 1370.42 4789.84C1409.81 4761.19 1442.04 4728.96 1467.1 4693.16C1495.75 4653.77 1519.02 4619.75 1536.93 4591.11C1554.83 4555.3 1570.94 4521.28 1585.27 4489.05C1596.01 4460.41 1604.96 4381.63 1612.12 4252.73C1619.28 4123.82 1624.65 3969.85 1628.23 3790.81C1631.82 3608.2 1633.61 3413.05 1633.61 3205.36C1637.19 2994.1 1635.4 2791.79 1628.23 2598.43C1624.65 2401.49 1617.49 2227.82 1606.75 2077.43C1599.59 1923.46 1588.85 1812.46 1574.52 1744.43C1553.04 1669.23 1524.39 1592.24 1488.59 1513.47C1459.94 1445.43 1418.76 1372.03 1365.05 1293.25C1314.92 1214.48 1254.05 1139.28 1182.43 1067.67ZM2315.73 1615.52C2315.73 1629.84 2317.52 1678.18 2321.11 1760.54C2324.69 1832.15 2328.27 1943.16 2331.85 2093.55C2339.01 2240.36 2347.96 2449.83 2358.7 2721.96C2448.22 2761.35 2535.95 2782.84 2621.89 2786.42C2707.82 2786.42 2784.81 2782.84 2852.84 2775.68C2931.62 2764.93 3006.82 2747.03 3078.43 2721.96C3175.11 2682.58 3250.3 2618.12 3304.02 2528.61C3361.31 2439.09 3398.9 2345.99 3416.81 2249.31C3438.29 2149.05 3443.66 2055.95 3432.92 1970.01C3422.18 1880.49 3398.9 1816.04 3363.1 1776.65C3295.06 1715.78 3210.92 1665.65 3110.66 1626.26C3024.72 1594.04 2915.51 1572.55 2783.02 1561.81C2654.11 1547.49 2498.35 1565.39 2315.73 1615.52ZM2288.88 4161.42C2421.37 4229.45 2537.74 4274.21 2638 4295.7C2738.26 4317.18 2822.41 4327.92 2890.44 4327.92C2969.22 4327.92 3037.25 4317.18 3094.54 4295.7C3162.58 4263.47 3228.82 4220.5 3293.27 4166.79C3361.31 4109.5 3411.44 4043.25 3443.66 3968.06C3479.47 3889.28 3493.79 3803.35 3486.63 3710.25C3479.47 3613.57 3438.29 3507.93 3363.1 3393.35C3295.06 3310.99 3212.71 3246.54 3116.03 3199.99C3030.09 3160.6 2920.88 3135.54 2788.39 3124.8C2659.48 3114.05 2500.14 3144.49 2310.36 3216.11L2288.88 4161.42Z" fill="black"/>
</svg>
